<?xml version="1.0" encoding="utf-8"?>
<!-- Generator: Adobe Illustrator 17.1.0, SVG Export Plug-In . SVG Version: 6.00 Build 0)  -->
<!DOCTYPE svg PUBLIC "-//W3C//DTD SVG 1.1//EN" "http://www.w3.org/Graphics/SVG/1.1/DTD/svg11.dtd">
<svg version="1.1" id="Layer_1" xmlns="http://www.w3.org/2000/svg" xmlns:xlink="http://www.w3.org/1999/xlink" x="0px" y="0px"
	 viewBox="0 0 100 60" enable-background="new 0 0 100 60" xml:space="preserve">
<g>
	<g>
		<g>
			<path fill="#FFFFFF" d="M16.9,13.9H23c5.9,0,9.4,3.1,9.4,8.3c0,5.4-4.1,8.6-9.8,8.6h-5.7C16.9,30.8,16.9,13.9,16.9,13.9z
				 M22.7,27.5c3.9,0,5.5-2.4,5.5-5.1c0-3.3-2-5.1-5.6-5.1h-1.8v10.3C20.8,27.5,22.7,27.5,22.7,27.5z"/>
			<path fill="#FFFFFF" d="M41.4,29.8c-0.8,0.7-1.8,1.3-3.4,1.3c-2.4,0-4.1-1.6-4.1-4c0-1.6,0.8-2.6,2-3.3c0.8-0.5,2-0.7,3.2-0.8
				l1.9-0.1v-0.2c0-1.2-0.8-1.6-2.1-1.6c-1,0-2.2,0.3-3.1,0.8l-1.2-2.5c1.5-0.7,3.1-1.2,5-1.2c3.8,0,5.3,1.7,5.3,4.6v5.4
				c0,0.8,0,1.7,0.2,2.4h-3.1L41.4,29.8z M39.7,25.4c-0.6,0-1.1,0.2-1.5,0.3c-0.4,0.2-0.5,0.5-0.5,1.1c0,0.8,0.6,1.2,1.5,1.2
				c0.8,0,1.5-0.2,1.8-0.5v-2.1H39.7z"/>
			<path fill="#FFFFFF" d="M56.5,15c0-1.2,1-2.2,2.3-2.2s2.3,0.9,2.3,2.2c0,1.2-1,2.2-2.3,2.2C57.5,17.2,56.5,16.3,56.5,15z
				 M56.9,18.6h3.8v12.1h-3.8V18.6z"/>
		</g>
	</g>
	<g enable-background="new    ">
		<path fill="#FFFFFF" d="M10.3,31.9v-1.5l2.9-0.9l0,0l-2.9-1v-1.2l2.9-1l0,0l-2.9-0.9v-1.5l4.8,1.9v1.2l-2.9,1l0,0l2.9,1v1.2
			L10.3,31.9z"/>
		<path fill="#FFFFFF" d="M13.2,22c0.6,0,0.8-0.5,0.8-1.2c0-0.5-0.2-0.9-0.3-1.2l1.1-0.5c0.4,0.5,0.5,1.2,0.5,1.8
			c0,1.9-1.2,2.6-2.5,2.6c-1.5,0-2.6-0.8-2.6-2.3c0-1.5,1-2.3,2.7-2.3h0.4L13.2,22L13.2,22z M12.2,20.5c-0.4,0-0.8,0.2-0.8,0.8
			c0,0.5,0.4,0.8,0.8,0.8V20.5z"/>
		<path fill="#FFFFFF" d="M14.9,18.1h-7v-1.5h2.4c-0.1-0.2-0.1-0.5-0.1-0.8c0-1.4,0.8-2.5,2.4-2.5c1.7,0,2.7,1.3,2.7,3.1
			C15.2,17,15.2,17.6,14.9,18.1z M12.6,14.9c-0.7,0-1.2,0.5-1.2,1.2c0,0.2,0,0.4,0.1,0.5h2.4c0.1-0.2,0.1-0.3,0.1-0.5
			C14,15.3,13.4,14.9,12.6,14.9z"/>
	</g>
	<g>
		<g>
			<path fill="#FFFFFF" d="M70.6,24v6.8l3.8-1.2v-6.7c0-3.8-2.1-4.5-4.1-4.5c-1.5,0-2.8,0.6-4.1,1.5L66,18.6h-3.3v12.1h3.8v-8.2
				c0.7-0.5,1.7-0.9,2.5-0.9C70.4,21.7,70.6,22.8,70.6,24z"/>
			<path fill="#FFFFFF" d="M20,42c0.1,1.3,1.2,1.9,2.6,1.9c1.1,0,1.9-0.2,2.7-0.7l1,2.2c-1.2,0.8-2.5,1-3.9,1
				c-4.1,0-5.7-2.7-5.7-5.4c0-3.1,1.7-5.6,5-5.6c3.1,0,5,2.1,5,5.8V42H20z M23.3,39.8c0-0.9-0.5-1.8-1.7-1.8c-1.1,0-1.6,0.9-1.6,1.8
				H23.3z"/>
			<path fill="#FFFFFF" d="M30.9,41l-3.8-5.2h3.5l2.2,3l2.2-3h3.5L34.5,41l4,5.3H35l-2.3-3.1l-2.3,3.1H27L30.9,41z"/>
			<path fill="#FFFFFF" d="M39.1,36.2c1.2-0.4,2.7-0.7,4.3-0.7c4.1,0,6,2.2,6,5.5c0,3.1-2.1,5.4-5.6,5.4c-0.5,0-0.9-0.1-1.4-0.2v5.1
				H39L39.1,36.2L39.1,36.2z M43.6,43.7c1.7,0,2.5-1.1,2.5-2.7c0-1.8-1-2.8-2.8-2.8c-0.3,0-0.6,0-0.8,0.1v5.3
				C42.8,43.7,43.2,43.7,43.6,43.7z"/>
			<path fill="#FFFFFF" d="M53.8,42c0.1,1.3,1.2,1.9,2.6,1.9c1.1,0,1.9-0.2,2.7-0.7l1,2.2c-1.2,0.8-2.5,1-3.9,1
				c-4.1,0-5.7-2.7-5.7-5.4c0-3.1,1.7-5.6,5-5.6c3.1,0,5,2.1,5,5.8V42H53.8z M57.1,39.8c0-0.9-0.5-1.8-1.7-1.8
				c-1.1,0-1.6,0.9-1.6,1.8H57.1z"/>
		</g>
	</g>
	<path fill="#FFFFFF" d="M66.9,38.4h1.3v-2.6c-0.2,0-0.4-0.1-0.5-0.1c-1.2,0-2,0.4-2.8,1.2l-0.4-1.1h-2.8v10.4H65V39
		C65.7,38.4,66.2,38.3,66.9,38.4C66.8,38.4,66.9,38.4,66.9,38.4z"/>
	<path fill="#FFFFFF" d="M75.4,33.2c0,0.5,0.2,1.1,0.5,1.6c1.1-0.5,2.5-0.8,4-0.9c-0.7-0.3-1.1-0.8-1.1-1.3c0-0.5,0.3-0.9,0.5-1.2
		c1.2,0.6,5.1,0.3,5.1,1.7c0,0.4-0.3,0.7-0.8,0.8c1,0.1,2,0.2,2.8,0.5l0,0c0.3,0.1,0.5,0.2,0.8,0.4c0.5-0.6,0.8-1.4,0.8-2.1
		c0-4.5-8-2.5-8-4.6c0-0.2,0-0.2,0.1-0.5c0.4,0.1,0.8,0.2,1.4,0.2c3.1,0,5.3-1.8,5.3-4.5c0-1-0.3-1.9-0.8-2.7
		c0.2-0.1,0.5-0.1,0.7-0.1c0.3,0,0.7,0.1,1,0.2l0.7-2.7c-0.2,0-0.6-0.1-0.8-0.1c-1.8,0-2.5,0.5-3.2,1.1c-0.1,0.1-0.2,0.2-0.3,0.1
		c-0.5-0.3-1.4-0.5-2.5-0.5c-3.8,0-5.2,2.5-5.2,4.5c0,1.6,0.7,3.1,2.1,3.8c-1,0.5-1.6,1.4-1.6,2.2c0,0.6,0.3,1.2,0.8,1.5
		C76.5,30.8,75.4,31.8,75.4,33.2z M81.5,21.2c1.2,0,1.8,1,1.8,1.9c0,1.2-0.8,1.8-1.7,1.8c-1.2,0-1.7-0.9-1.7-1.8
		C79.9,21.7,80.5,21.2,81.5,21.2z"/>
	<path fill="#FFFFFF" d="M55,27.5c-0.5,0.3-1.2,0.5-1.8,0.5c-0.8,0-1.2-0.4-1.2-1.5v-4.8h2.8l0.8-3h-3.7v-4l-3.8,1.1v2.8h-2.3v3h2.3
		v5.8c0,2.2,1.5,3.5,4,3.5c0.8,0,1.9-0.2,2.8-0.5L55,27.5L55,27.5z"/>
	<path fill="#FFFFFF" d="M76.9,43.4c-0.4,0.2-1,0.5-1.5,0.5c-0.7,0-1-0.3-1-1.3v-4.1h2.5l0.8-2.5h-3.2v-3.5L71,33.2v2.5h-2v2.5h2
		v5.1c0,1.9,1.3,3.1,3.5,3.1c0.8,0,1.6-0.2,2.4-0.4L76.9,43.4C76.8,43.4,76.9,43.4,76.9,43.4z"/>
	<path fill="#FFFFFF" d="M81,38.7c0-0.4,0.3-0.6,1.2-0.6c1.2,0,2.2,0.3,3.2,0.8v-2.8c-0.9-0.3-2.1-0.5-3.4-0.5
		c-2.6,0-4.3,1.3-4.3,3.4c0,3.5,4.9,2.9,4.9,4.4c0,0.5-0.6,0.7-1.5,0.7c-1,0-2.1-0.3-3-0.9V46c0.9,0.4,2,0.6,3.3,0.6
		c2.3,0,4.5-0.9,4.5-3.4C86,39.4,81,39.9,81,38.7z"/>
	<path opacity="0.3" fill="#FFFFFF" enable-background="new    " d="M95.7,56.9H4.3c-2.1,0-3.8-1.7-3.8-3.8V7c0-2.1,1.7-3.8,3.8-3.8
		h91.3c2.1,0,3.8,1.7,3.8,3.8v46C99.5,55.2,97.8,56.9,95.7,56.9z M4.3,4.7C3,4.7,2,5.7,2,7v46c0,1.3,1,2.3,2.3,2.3h91.3
		c1.3,0,2.3-1,2.3-2.3V7c0-1.3-1-2.3-2.3-2.3H4.3z"/>
</g>
</svg>
